# xmcd
#
# Track frame offsets:
# 150
# 16696
# 36802
# 50655
# 69168
# 87534
# 104305
# 117566
# 131891
# 152568
# 169369
# 183954
# 196498
#
# Disc length: 2841 seconds
#
#
# Revision: 0
# Processed by: cddbd v1.5PL3 Copyright (c) Steve Scherf et al.
# Submitted via: FreeRIP 2.51 
#
DISCID=b10b170d
DTITLE=Elizabeth McQueen and the Firebrands - The fresh up club
DYEAR=2003
DGENRE=Country
TTITLE0=Don't wanna stop
TTITLE1=Love minus one
TTITLE2=Heaven sent
TTITLE3=Lyin'
TTITLE4=You shouldn't have
TTITLE5=The oldest story
TTITLE6=Thirty days
TTITLE7=What am I worth?
TTITLE8=Don't know why
TTITLE9=Freight train
TTITLE10=Drive alright
TTITLE11=I know I cross his mind
TTITLE12=I think I'll stay in tonight
EXTD=
EXTT0=
EXTT1=
EXTT2=
EXTT3=
EXTT4=
EXTT5=
EXTT6=
EXTT7=
EXTT8=
EXTT9=
EXTT10=
EXTT11=
EXTT12=
PLAYORDER=
